<svg xmlns="http://www.w3.org/2000/svg" xmlns:xlink="http://www.w3.org/1999/xlink" width="180" zoomAndPan="magnify" viewBox="0 0 135 135.000003" height="180" preserveAspectRatio="xMidYMid meet" version="1.2"><defs/><g id="78d570c551"><g style="fill:#00bf63;fill-opacity:1;"><g transform="translate(0.496322, 97.902817)"><path style="stroke:none" d="M 32.625 1.015625 L 17.203125 1.015625 C 14.710938 1.015625 12.585938 0.269531 10.828125 -1.21875 C 9.972656 -1.9375 9.253906 -2.78125 8.671875 -3.75 C 8.097656 -4.71875 7.691406 -5.765625 7.453125 -6.890625 C 7.316406 -7.472656 7.25 -8.171875 7.25 -8.984375 L 7.25 -55.1875 C 7.21875 -55.726562 7.15625 -56.28125 7.0625 -56.84375 C 6.976562 -57.40625 6.867188 -57.972656 6.734375 -58.546875 C 6.597656 -59.128906 6.492188 -59.679688 6.421875 -60.203125 C 6.359375 -60.734375 6.328125 -61.253906 6.328125 -61.765625 C 6.328125 -62.378906 6.425781 -62.945312 6.625 -63.46875 C 6.832031 -64 7.160156 -64.4375 7.609375 -64.78125 C 8.085938 -65.15625 8.722656 -65.4375 9.515625 -65.625 C 10.316406 -65.8125 11.363281 -65.90625 12.65625 -65.90625 L 32.625 -65.90625 C 35.6875 -65.90625 38.632812 -65.503906 41.46875 -64.703125 C 44.3125 -63.898438 46.976562 -62.769531 49.46875 -61.3125 C 54.5 -58.34375 58.492188 -54.34375 61.453125 -49.3125 C 62.921875 -46.820312 64.050781 -44.15625 64.84375 -41.3125 C 65.644531 -38.476562 66.046875 -35.53125 66.046875 -32.46875 C 66.046875 -27.832031 65.171875 -23.484375 63.421875 -19.421875 C 61.671875 -15.359375 59.28125 -11.8125 56.25 -8.78125 C 53.1875 -5.75 49.628906 -3.359375 45.578125 -1.609375 C 41.535156 0.140625 37.21875 1.015625 32.625 1.015625 Z M 46.09375 -32.46875 C 46.09375 -34.75 45.734375 -36.78125 45.015625 -38.5625 C 44.304688 -40.351562 43.335938 -41.878906 42.109375 -43.140625 C 40.890625 -44.359375 39.460938 -45.316406 37.828125 -46.015625 C 36.191406 -46.710938 34.457031 -47.113281 32.625 -47.21875 L 27.15625 -47.21875 L 27.15625 -18.625 L 32.625 -18.625 C 36.4375 -18.832031 39.597656 -20.179688 42.109375 -22.671875 C 43.335938 -23.859375 44.304688 -25.273438 45.015625 -26.921875 C 45.734375 -28.578125 46.09375 -30.425781 46.09375 -32.46875 Z M 46.09375 -32.46875 "/></g></g><g style="fill:#ffde59;fill-opacity:1;"><g transform="translate(69.76704, 97.902817)"><path style="stroke:none" d="M 6.328125 -61.765625 C 6.328125 -62.378906 6.410156 -62.945312 6.578125 -63.46875 C 6.753906 -64 7.0625 -64.4375 7.5 -64.78125 C 7.90625 -65.15625 8.484375 -65.4375 9.234375 -65.625 C 9.984375 -65.8125 10.957031 -65.90625 12.15625 -65.90625 L 37.875 -65.90625 C 40.15625 -65.90625 42.367188 -65.613281 44.515625 -65.03125 C 46.660156 -64.457031 48.648438 -63.59375 50.484375 -62.4375 C 52.285156 -61.269531 53.875 -59.84375 55.25 -58.15625 C 56.632812 -56.476562 57.71875 -54.515625 58.5 -52.265625 C 58.875 -51.179688 59.160156 -50.023438 59.359375 -48.796875 C 59.566406 -47.578125 59.671875 -46.269531 59.671875 -44.875 C 59.671875 -43.300781 59.46875 -41.910156 59.0625 -40.703125 C 58.65625 -39.492188 58.210938 -38.453125 57.734375 -37.578125 C 57.460938 -37.066406 57.164062 -36.585938 56.84375 -36.140625 C 56.519531 -35.703125 56.1875 -35.296875 55.84375 -34.921875 C 58.125 -33.210938 59.945312 -30.757812 61.3125 -27.5625 C 61.988281 -25.894531 62.328125 -23.957031 62.328125 -21.75 C 62.328125 -19.363281 62.003906 -17.019531 61.359375 -14.71875 C 60.710938 -12.425781 59.65625 -10.273438 58.1875 -8.265625 C 56.726562 -6.265625 55.003906 -4.570312 53.015625 -3.1875 C 51.023438 -1.8125 48.851562 -0.765625 46.5 -0.046875 C 44.125 0.660156 41.675781 1.015625 39.15625 1.015625 L 17.203125 1.015625 C 15.597656 1.015625 14.175781 0.71875 12.9375 0.125 C 11.695312 -0.46875 10.671875 -1.238281 9.859375 -2.1875 C 9.003906 -3.144531 8.351562 -4.21875 7.90625 -5.40625 C 7.46875 -6.601562 7.25 -7.796875 7.25 -8.984375 L 7.25 -55.1875 L 7.09375 -56.515625 C 7.0625 -56.710938 7.023438 -56.910156 6.984375 -57.109375 C 6.953125 -57.316406 6.921875 -57.539062 6.890625 -57.78125 L 6.796875 -58.34375 C 6.648438 -58.925781 6.535156 -59.503906 6.453125 -60.078125 C 6.367188 -60.660156 6.328125 -61.222656 6.328125 -61.765625 Z M 37.15625 -48.703125 L 26.84375 -48.703125 L 26.84375 -41.140625 L 37.265625 -41.140625 C 38.148438 -41.140625 38.96875 -41.515625 39.71875 -42.265625 C 40.394531 -43.015625 40.734375 -43.914062 40.734375 -44.96875 C 40.734375 -46.09375 40.347656 -46.992188 39.578125 -47.671875 C 38.816406 -48.359375 38.007812 -48.703125 37.15625 -48.703125 Z M 37.984375 -26.140625 L 26.84375 -26.140625 L 26.84375 -17.25 L 37.984375 -17.25 C 38.421875 -17.25 38.921875 -17.328125 39.484375 -17.484375 C 40.046875 -17.640625 40.546875 -17.882812 40.984375 -18.21875 C 41.460938 -18.5625 41.847656 -19.015625 42.140625 -19.578125 C 42.429688 -20.140625 42.578125 -20.828125 42.578125 -21.640625 C 42.578125 -22.492188 42.429688 -23.207031 42.140625 -23.78125 C 41.847656 -24.363281 41.484375 -24.828125 41.046875 -25.171875 C 40.597656 -25.546875 40.101562 -25.800781 39.5625 -25.9375 C 39.019531 -26.070312 38.492188 -26.140625 37.984375 -26.140625 Z M 37.984375 -26.140625 "/></g></g></g></svg>