<svg xmlns="http://www.w3.org/2000/svg" xmlns:xlink="http://www.w3.org/1999/xlink" width="60" zoomAndPan="magnify" viewBox="0 0 45 44.999999" height="60" preserveAspectRatio="xMidYMid meet" version="1.2"><defs/><g id="66b31ceea0"><g style="fill:#00bf63;fill-opacity:1;"><g transform="translate(1.21601, 31.342426)"><path style="stroke:none" d="M 10.359375 0.328125 L 5.46875 0.328125 C 4.675781 0.328125 4 0.0859375 3.4375 -0.390625 C 3.164062 -0.617188 2.9375 -0.882812 2.75 -1.1875 C 2.570312 -1.5 2.441406 -1.832031 2.359375 -2.1875 C 2.316406 -2.375 2.296875 -2.597656 2.296875 -2.859375 L 2.296875 -17.53125 C 2.285156 -17.695312 2.265625 -17.867188 2.234375 -18.046875 C 2.210938 -18.222656 2.179688 -18.40625 2.140625 -18.59375 C 2.097656 -18.78125 2.066406 -18.957031 2.046875 -19.125 C 2.023438 -19.289062 2.015625 -19.453125 2.015625 -19.609375 C 2.015625 -19.804688 2.046875 -19.988281 2.109375 -20.15625 C 2.171875 -20.320312 2.273438 -20.460938 2.421875 -20.578125 C 2.566406 -20.691406 2.765625 -20.773438 3.015625 -20.828125 C 3.273438 -20.890625 3.609375 -20.921875 4.015625 -20.921875 L 10.359375 -20.921875 C 11.328125 -20.921875 12.265625 -20.796875 13.171875 -20.546875 C 14.078125 -20.296875 14.921875 -19.9375 15.703125 -19.46875 C 17.304688 -18.53125 18.578125 -17.257812 19.515625 -15.65625 C 19.984375 -14.863281 20.34375 -14.015625 20.59375 -13.109375 C 20.851562 -12.210938 20.984375 -11.28125 20.984375 -10.3125 C 20.984375 -8.84375 20.703125 -7.460938 20.140625 -6.171875 C 19.585938 -4.878906 18.828125 -3.75 17.859375 -2.78125 C 16.890625 -1.820312 15.757812 -1.0625 14.46875 -0.5 C 13.1875 0.0507812 11.816406 0.328125 10.359375 0.328125 Z M 14.640625 -10.3125 C 14.640625 -11.03125 14.523438 -11.671875 14.296875 -12.234375 C 14.066406 -12.804688 13.757812 -13.296875 13.375 -13.703125 C 12.988281 -14.085938 12.535156 -14.390625 12.015625 -14.609375 C 11.492188 -14.835938 10.941406 -14.96875 10.359375 -15 L 8.625 -15 L 8.625 -5.921875 L 10.359375 -5.921875 C 11.566406 -5.984375 12.570312 -6.410156 13.375 -7.203125 C 13.757812 -7.578125 14.066406 -8.023438 14.296875 -8.546875 C 14.523438 -9.078125 14.640625 -9.664062 14.640625 -10.3125 Z M 14.640625 -10.3125 "/></g></g><g style="fill:#ffde59;fill-opacity:1;"><g transform="translate(23.220134, 31.342426)"><path style="stroke:none" d="M 2.015625 -19.609375 C 2.015625 -19.804688 2.039062 -19.988281 2.09375 -20.15625 C 2.144531 -20.320312 2.242188 -20.460938 2.390625 -20.578125 C 2.515625 -20.691406 2.695312 -20.773438 2.9375 -20.828125 C 3.175781 -20.890625 3.484375 -20.921875 3.859375 -20.921875 L 12.03125 -20.921875 C 12.75 -20.921875 13.445312 -20.828125 14.125 -20.640625 C 14.8125 -20.460938 15.445312 -20.191406 16.03125 -19.828125 C 16.601562 -19.460938 17.109375 -19.007812 17.546875 -18.46875 C 17.984375 -17.9375 18.328125 -17.3125 18.578125 -16.59375 C 18.691406 -16.25 18.78125 -15.882812 18.84375 -15.5 C 18.914062 -15.113281 18.953125 -14.695312 18.953125 -14.25 C 18.953125 -13.75 18.882812 -13.304688 18.75 -12.921875 C 18.625 -12.546875 18.484375 -12.21875 18.328125 -11.9375 C 18.242188 -11.769531 18.148438 -11.613281 18.046875 -11.46875 C 17.941406 -11.332031 17.835938 -11.207031 17.734375 -11.09375 C 18.460938 -10.550781 19.039062 -9.769531 19.46875 -8.75 C 19.6875 -8.21875 19.796875 -7.601562 19.796875 -6.90625 C 19.796875 -6.144531 19.691406 -5.398438 19.484375 -4.671875 C 19.273438 -3.941406 18.941406 -3.257812 18.484375 -2.625 C 18.015625 -1.988281 17.460938 -1.453125 16.828125 -1.015625 C 16.203125 -0.578125 15.515625 -0.242188 14.765625 -0.015625 C 14.015625 0.210938 13.238281 0.328125 12.4375 0.328125 L 5.46875 0.328125 C 4.957031 0.328125 4.503906 0.226562 4.109375 0.03125 C 3.710938 -0.15625 3.382812 -0.398438 3.125 -0.703125 C 2.851562 -1.003906 2.644531 -1.34375 2.5 -1.71875 C 2.363281 -2.09375 2.296875 -2.472656 2.296875 -2.859375 L 2.296875 -17.53125 L 2.25 -17.953125 C 2.238281 -18.015625 2.226562 -18.078125 2.21875 -18.140625 C 2.207031 -18.203125 2.195312 -18.269531 2.1875 -18.34375 L 2.15625 -18.53125 C 2.113281 -18.71875 2.078125 -18.898438 2.046875 -19.078125 C 2.023438 -19.265625 2.015625 -19.441406 2.015625 -19.609375 Z M 11.796875 -15.46875 L 8.53125 -15.46875 L 8.53125 -13.0625 L 11.828125 -13.0625 C 12.109375 -13.0625 12.367188 -13.179688 12.609375 -13.421875 C 12.828125 -13.660156 12.9375 -13.945312 12.9375 -14.28125 C 12.9375 -14.632812 12.8125 -14.921875 12.5625 -15.140625 C 12.320312 -15.359375 12.066406 -15.46875 11.796875 -15.46875 Z M 12.0625 -8.296875 L 8.53125 -8.296875 L 8.53125 -5.484375 L 12.0625 -5.484375 C 12.195312 -5.484375 12.351562 -5.503906 12.53125 -5.546875 C 12.71875 -5.597656 12.878906 -5.675781 13.015625 -5.78125 C 13.171875 -5.894531 13.289062 -6.039062 13.375 -6.21875 C 13.46875 -6.394531 13.515625 -6.613281 13.515625 -6.875 C 13.515625 -7.144531 13.46875 -7.367188 13.375 -7.546875 C 13.289062 -7.734375 13.175781 -7.878906 13.03125 -7.984375 C 12.894531 -8.109375 12.738281 -8.191406 12.5625 -8.234375 C 12.382812 -8.273438 12.21875 -8.296875 12.0625 -8.296875 Z M 12.0625 -8.296875 "/></g></g></g></svg>