<svg xmlns="http://www.w3.org/2000/svg" xmlns:xlink="http://www.w3.org/1999/xlink" zoomAndPan="magnify" preserveAspectRatio="xMidYMid meet" version="1.2" viewBox="12.68 23.86 297.24 34.64"><defs/><g id="b0980d443e"><g style="fill:#00bf63;fill-opacity:1;"><g transform="translate(9.433434, 57.987468)"><path style="stroke:none" d="M 16.703125 0.515625 L 8.8125 0.515625 C 7.539062 0.515625 6.453125 0.132812 5.546875 -0.625 C 5.109375 -0.988281 4.738281 -1.421875 4.4375 -1.921875 C 4.144531 -2.421875 3.9375 -2.957031 3.8125 -3.53125 C 3.75 -3.820312 3.71875 -4.179688 3.71875 -4.609375 L 3.71875 -28.265625 C 3.695312 -28.546875 3.664062 -28.828125 3.625 -29.109375 C 3.582031 -29.398438 3.523438 -29.691406 3.453125 -29.984375 C 3.378906 -30.285156 3.328125 -30.570312 3.296875 -30.84375 C 3.265625 -31.113281 3.25 -31.378906 3.25 -31.640625 C 3.25 -31.953125 3.300781 -32.242188 3.40625 -32.515625 C 3.507812 -32.785156 3.671875 -33.007812 3.890625 -33.1875 C 4.140625 -33.375 4.46875 -33.515625 4.875 -33.609375 C 5.28125 -33.703125 5.816406 -33.75 6.484375 -33.75 L 16.703125 -33.75 C 18.273438 -33.75 19.785156 -33.546875 21.234375 -33.140625 C 22.691406 -32.734375 24.0625 -32.15625 25.34375 -31.40625 C 27.914062 -29.882812 29.960938 -27.835938 31.484375 -25.265625 C 32.234375 -23.984375 32.8125 -22.613281 33.21875 -21.15625 C 33.625 -19.707031 33.828125 -18.195312 33.828125 -16.625 C 33.828125 -14.257812 33.378906 -12.035156 32.484375 -9.953125 C 31.585938 -7.867188 30.363281 -6.050781 28.8125 -4.5 C 27.25 -2.945312 25.425781 -1.722656 23.34375 -0.828125 C 21.269531 0.0664062 19.054688 0.515625 16.703125 0.515625 Z M 23.609375 -16.625 C 23.609375 -17.789062 23.425781 -18.832031 23.0625 -19.75 C 22.695312 -20.664062 22.203125 -21.445312 21.578125 -22.09375 C 20.941406 -22.71875 20.207031 -23.207031 19.375 -23.5625 C 18.539062 -23.925781 17.648438 -24.132812 16.703125 -24.1875 L 13.90625 -24.1875 L 13.90625 -9.546875 L 16.703125 -9.546875 C 18.660156 -9.648438 20.285156 -10.335938 21.578125 -11.609375 C 22.203125 -12.222656 22.695312 -12.953125 23.0625 -13.796875 C 23.425781 -14.640625 23.609375 -15.582031 23.609375 -16.625 Z M 23.609375 -16.625 "/></g></g><g style="fill:#00bf63;fill-opacity:1;"><g transform="translate(44.918633, 57.987468)"><path style="stroke:none" d="M 1.625 -12.65625 C 1.625 -14.445312 1.972656 -16.144531 2.671875 -17.75 C 3.367188 -19.351562 4.316406 -20.75 5.515625 -21.9375 C 6.703125 -23.125 8.09375 -24.066406 9.6875 -24.765625 C 11.28125 -25.460938 12.984375 -25.8125 14.796875 -25.8125 C 16.609375 -25.8125 18.3125 -25.460938 19.90625 -24.765625 C 21.5 -24.066406 22.898438 -23.125 24.109375 -21.9375 C 25.296875 -20.75 26.238281 -19.351562 26.9375 -17.75 C 27.632812 -16.144531 27.984375 -14.445312 27.984375 -12.65625 C 27.984375 -10.84375 27.632812 -9.132812 26.9375 -7.53125 C 26.238281 -5.925781 25.296875 -4.53125 24.109375 -3.34375 C 22.898438 -2.144531 21.5 -1.203125 19.90625 -0.515625 C 18.3125 0.171875 16.609375 0.515625 14.796875 0.515625 C 12.984375 0.515625 11.28125 0.171875 9.6875 -0.515625 C 8.09375 -1.203125 6.703125 -2.144531 5.515625 -3.34375 C 4.316406 -4.53125 3.367188 -5.925781 2.671875 -7.53125 C 1.972656 -9.132812 1.625 -10.84375 1.625 -12.65625 Z M 11.875 -12.65625 C 11.875 -11.78125 12.148438 -11.039062 12.703125 -10.4375 C 12.960938 -10.15625 13.269531 -9.921875 13.625 -9.734375 C 13.988281 -9.554688 14.378906 -9.46875 14.796875 -9.46875 C 15.210938 -9.46875 15.597656 -9.554688 15.953125 -9.734375 C 16.316406 -9.921875 16.628906 -10.15625 16.890625 -10.4375 C 17.453125 -11.039062 17.734375 -11.78125 17.734375 -12.65625 C 17.734375 -13.507812 17.453125 -14.242188 16.890625 -14.859375 C 16.628906 -15.148438 16.316406 -15.378906 15.953125 -15.546875 C 15.597656 -15.710938 15.210938 -15.796875 14.796875 -15.796875 C 14.378906 -15.796875 13.988281 -15.710938 13.625 -15.546875 C 13.269531 -15.378906 12.960938 -15.148438 12.703125 -14.859375 C 12.148438 -14.242188 11.875 -13.507812 11.875 -12.65625 Z M 11.875 -12.65625 "/></g></g><g style="fill:#00bf63;fill-opacity:1;"><g transform="translate(74.520139, 57.987468)"><path style="stroke:none" d="M 2.71875 -4.609375 L 2.71875 -29.03125 C 2.71875 -29.726562 2.847656 -30.390625 3.109375 -31.015625 C 3.367188 -31.640625 3.734375 -32.179688 4.203125 -32.640625 C 4.660156 -33.085938 5.203125 -33.445312 5.828125 -33.71875 C 6.453125 -33.988281 7.125 -34.125 7.84375 -34.125 C 8.539062 -34.125 9.203125 -33.988281 9.828125 -33.71875 C 10.453125 -33.445312 11.003906 -33.085938 11.484375 -32.640625 C 11.929688 -32.179688 12.289062 -31.640625 12.5625 -31.015625 C 12.832031 -30.390625 12.96875 -29.726562 12.96875 -29.03125 L 12.96875 -4.609375 C 12.96875 -3.890625 12.832031 -3.210938 12.5625 -2.578125 C 12.289062 -1.953125 11.929688 -1.414062 11.484375 -0.96875 C 11.003906 -0.5 10.453125 -0.132812 9.828125 0.125 C 9.203125 0.382812 8.539062 0.515625 7.84375 0.515625 C 7.125 0.515625 6.453125 0.382812 5.828125 0.125 C 5.203125 -0.132812 4.660156 -0.5 4.203125 -0.96875 C 3.734375 -1.414062 3.367188 -1.953125 3.109375 -2.578125 C 2.847656 -3.210938 2.71875 -3.890625 2.71875 -4.609375 Z M 2.71875 -4.609375 "/></g></g><g style="fill:#00bf63;fill-opacity:1;"><g transform="translate(90.209986, 57.987468)"><path style="stroke:none" d="M 2.71875 -4.609375 L 2.71875 -29.03125 C 2.71875 -29.726562 2.847656 -30.390625 3.109375 -31.015625 C 3.367188 -31.640625 3.734375 -32.179688 4.203125 -32.640625 C 4.660156 -33.085938 5.203125 -33.445312 5.828125 -33.71875 C 6.453125 -33.988281 7.125 -34.125 7.84375 -34.125 C 8.539062 -34.125 9.203125 -33.988281 9.828125 -33.71875 C 10.453125 -33.445312 11.003906 -33.085938 11.484375 -32.640625 C 11.929688 -32.179688 12.289062 -31.640625 12.5625 -31.015625 C 12.832031 -30.390625 12.96875 -29.726562 12.96875 -29.03125 L 12.96875 -4.609375 C 12.96875 -3.890625 12.832031 -3.210938 12.5625 -2.578125 C 12.289062 -1.953125 11.929688 -1.414062 11.484375 -0.96875 C 11.003906 -0.5 10.453125 -0.132812 9.828125 0.125 C 9.203125 0.382812 8.539062 0.515625 7.84375 0.515625 C 7.125 0.515625 6.453125 0.382812 5.828125 0.125 C 5.203125 -0.132812 4.660156 -0.5 4.203125 -0.96875 C 3.734375 -1.414062 3.367188 -1.953125 3.109375 -2.578125 C 2.847656 -3.210938 2.71875 -3.890625 2.71875 -4.609375 Z M 2.71875 -4.609375 "/></g></g><g style="fill:#00bf63;fill-opacity:1;"><g transform="translate(105.899833, 57.987468)"><path style="stroke:none" d="M 28.0625 -23.03125 L 28.0625 -2.296875 C 28.0625 -0.421875 27.117188 0.515625 25.234375 0.515625 C 24.398438 0.515625 23.6875 0.296875 23.09375 -0.140625 C 22.5 -0.585938 22 -1.175781 21.59375 -1.90625 C 20.757812 -1.144531 19.785156 -0.550781 18.671875 -0.125 C 17.554688 0.300781 16.289062 0.515625 14.875 0.515625 C 13.0625 0.515625 11.359375 0.171875 9.765625 -0.515625 C 8.171875 -1.203125 6.78125 -2.144531 5.59375 -3.34375 C 4.394531 -4.53125 3.445312 -5.925781 2.75 -7.53125 C 2.050781 -9.132812 1.703125 -10.84375 1.703125 -12.65625 C 1.703125 -14.445312 2.050781 -16.144531 2.75 -17.75 C 3.445312 -19.351562 4.394531 -20.75 5.59375 -21.9375 C 6.78125 -23.125 8.171875 -24.066406 9.765625 -24.765625 C 11.359375 -25.460938 13.0625 -25.8125 14.875 -25.8125 C 16.289062 -25.8125 17.550781 -25.597656 18.65625 -25.171875 C 19.757812 -24.742188 20.734375 -24.144531 21.578125 -23.375 C 21.972656 -24.125 22.460938 -24.722656 23.046875 -25.171875 C 23.628906 -25.628906 24.359375 -25.859375 25.234375 -25.859375 C 27.117188 -25.859375 28.0625 -24.914062 28.0625 -23.03125 Z M 17.8125 -12.65625 L 17.8125 -12.78125 C 17.789062 -13.1875 17.703125 -13.570312 17.546875 -13.9375 C 17.390625 -14.300781 17.179688 -14.625 16.921875 -14.90625 C 16.660156 -15.164062 16.351562 -15.378906 16 -15.546875 C 15.65625 -15.710938 15.28125 -15.796875 14.875 -15.796875 C 14.457031 -15.796875 14.066406 -15.710938 13.703125 -15.546875 C 13.347656 -15.378906 13.039062 -15.148438 12.78125 -14.859375 C 12.226562 -14.242188 11.953125 -13.507812 11.953125 -12.65625 C 11.953125 -11.78125 12.226562 -11.039062 12.78125 -10.4375 C 13.039062 -10.15625 13.347656 -9.921875 13.703125 -9.734375 C 14.066406 -9.554688 14.457031 -9.46875 14.875 -9.46875 C 15.289062 -9.46875 15.675781 -9.554688 16.03125 -9.734375 C 16.394531 -9.921875 16.707031 -10.15625 16.96875 -10.4375 C 17.53125 -11.039062 17.8125 -11.78125 17.8125 -12.65625 Z M 17.8125 -12.65625 "/></g></g><g style="fill:#00bf63;fill-opacity:1;"><g transform="translate(137.201074, 57.987468)"><path style="stroke:none" d="M 2.71875 -4.609375 L 2.71875 -22.984375 C 2.71875 -24.867188 3.664062 -25.8125 5.5625 -25.8125 C 6.414062 -25.8125 7.125 -25.601562 7.6875 -25.1875 C 8.257812 -24.78125 8.753906 -24.160156 9.171875 -23.328125 C 10.171875 -24.109375 11.234375 -24.71875 12.359375 -25.15625 C 13.492188 -25.59375 14.671875 -25.8125 15.890625 -25.8125 C 16.710938 -25.8125 17.554688 -25.710938 18.421875 -25.515625 C 19.296875 -25.328125 20.082031 -25.023438 20.78125 -24.609375 C 21.5 -24.171875 22.078125 -23.601562 22.515625 -22.90625 C 22.960938 -22.207031 23.1875 -21.363281 23.1875 -20.375 C 23.1875 -19.707031 23.050781 -19.078125 22.78125 -18.484375 C 22.519531 -17.890625 22.171875 -17.375 21.734375 -16.9375 C 20.835938 -16 19.710938 -15.53125 18.359375 -15.53125 C 18.003906 -15.53125 17.65625 -15.554688 17.3125 -15.609375 C 16.945312 -15.660156 16.582031 -15.707031 16.21875 -15.75 C 15.863281 -15.789062 15.515625 -15.8125 15.171875 -15.8125 C 14.796875 -15.8125 14.460938 -15.757812 14.171875 -15.65625 C 13.878906 -15.550781 13.660156 -15.40625 13.515625 -15.21875 C 13.359375 -15.03125 13.242188 -14.800781 13.171875 -14.53125 C 13.109375 -14.269531 13.054688 -13.984375 13.015625 -13.671875 C 13.003906 -13.503906 12.992188 -13.335938 12.984375 -13.171875 C 12.972656 -13.003906 12.96875 -12.832031 12.96875 -12.65625 L 12.96875 -4.609375 C 12.96875 -3.890625 12.832031 -3.210938 12.5625 -2.578125 C 12.289062 -1.953125 11.929688 -1.414062 11.484375 -0.96875 C 11.003906 -0.5 10.453125 -0.132812 9.828125 0.125 C 9.203125 0.382812 8.539062 0.515625 7.84375 0.515625 C 7.125 0.515625 6.453125 0.382812 5.828125 0.125 C 5.203125 -0.132812 4.660156 -0.5 4.203125 -0.96875 C 3.734375 -1.414062 3.367188 -1.953125 3.109375 -2.578125 C 2.847656 -3.210938 2.71875 -3.890625 2.71875 -4.609375 Z M 2.71875 -4.609375 "/></g></g><g style="fill:#ffde59;fill-opacity:1;"><g transform="translate(161.55663, 57.987468)"><path style="stroke:none" d="M 3.25 -31.640625 C 3.25 -31.953125 3.289062 -32.242188 3.375 -32.515625 C 3.457031 -32.785156 3.613281 -33.007812 3.84375 -33.1875 C 4.050781 -33.375 4.347656 -33.515625 4.734375 -33.609375 C 5.117188 -33.703125 5.613281 -33.75 6.21875 -33.75 L 19.40625 -33.75 C 20.570312 -33.75 21.703125 -33.601562 22.796875 -33.3125 C 23.898438 -33.019531 24.921875 -32.578125 25.859375 -31.984375 C 26.785156 -31.390625 27.597656 -30.660156 28.296875 -29.796875 C 29.003906 -28.929688 29.5625 -27.925781 29.96875 -26.78125 C 30.15625 -26.21875 30.300781 -25.625 30.40625 -25 C 30.507812 -24.375 30.5625 -23.703125 30.5625 -22.984375 C 30.5625 -22.179688 30.457031 -21.46875 30.25 -20.84375 C 30.039062 -20.226562 29.816406 -19.695312 29.578125 -19.25 C 29.429688 -18.988281 29.273438 -18.742188 29.109375 -18.515625 C 28.953125 -18.285156 28.785156 -18.078125 28.609375 -17.890625 C 29.773438 -17.015625 30.707031 -15.757812 31.40625 -14.125 C 31.75 -13.269531 31.921875 -12.273438 31.921875 -11.140625 C 31.921875 -9.921875 31.753906 -8.722656 31.421875 -7.546875 C 31.097656 -6.367188 30.5625 -5.265625 29.8125 -4.234375 C 29.0625 -3.203125 28.175781 -2.332031 27.15625 -1.625 C 26.132812 -0.925781 25.023438 -0.394531 23.828125 -0.03125 C 22.597656 0.332031 21.34375 0.515625 20.0625 0.515625 L 8.8125 0.515625 C 7.988281 0.515625 7.257812 0.363281 6.625 0.0625 C 5.988281 -0.238281 5.460938 -0.632812 5.046875 -1.125 C 4.609375 -1.613281 4.273438 -2.160156 4.046875 -2.765625 C 3.828125 -3.378906 3.71875 -3.992188 3.71875 -4.609375 L 3.71875 -28.265625 L 3.640625 -28.953125 C 3.617188 -29.054688 3.597656 -29.160156 3.578125 -29.265625 C 3.566406 -29.367188 3.550781 -29.476562 3.53125 -29.59375 L 3.484375 -29.890625 C 3.410156 -30.179688 3.351562 -30.472656 3.3125 -30.765625 C 3.269531 -31.066406 3.25 -31.359375 3.25 -31.640625 Z M 19.03125 -24.953125 L 13.75 -24.953125 L 13.75 -21.078125 L 19.09375 -21.078125 C 19.539062 -21.078125 19.957031 -21.269531 20.34375 -21.65625 C 20.6875 -22.03125 20.859375 -22.488281 20.859375 -23.03125 C 20.859375 -23.613281 20.660156 -24.078125 20.265625 -24.421875 C 19.878906 -24.773438 19.46875 -24.953125 19.03125 -24.953125 Z M 19.453125 -13.390625 L 13.75 -13.390625 L 13.75 -8.84375 L 19.453125 -8.84375 C 19.679688 -8.84375 19.9375 -8.878906 20.21875 -8.953125 C 20.507812 -9.035156 20.769531 -9.160156 21 -9.328125 C 21.238281 -9.503906 21.429688 -9.734375 21.578125 -10.015625 C 21.734375 -10.304688 21.8125 -10.664062 21.8125 -11.09375 C 21.8125 -11.519531 21.734375 -11.878906 21.578125 -12.171875 C 21.429688 -12.472656 21.242188 -12.710938 21.015625 -12.890625 C 20.796875 -13.078125 20.546875 -13.207031 20.265625 -13.28125 C 19.984375 -13.351562 19.710938 -13.390625 19.453125 -13.390625 Z M 19.453125 -13.390625 "/></g></g><g style="fill:#ffde59;fill-opacity:1;"><g transform="translate(194.714497, 57.987468)"><path style="stroke:none" d="M 29.125 -20.703125 L 29.125 -2.296875 C 29.125 -0.421875 28.1875 0.515625 26.3125 0.515625 C 25.457031 0.515625 24.734375 0.304688 24.140625 -0.109375 C 23.554688 -0.523438 23.050781 -1.148438 22.625 -1.984375 C 21.726562 -1.359375 20.863281 -0.875 20.03125 -0.53125 C 19.195312 -0.195312 18.421875 0.046875 17.703125 0.203125 C 16.984375 0.359375 16.328125 0.445312 15.734375 0.46875 C 15.148438 0.5 14.664062 0.515625 14.28125 0.515625 C 12.46875 0.515625 10.84375 0.171875 9.40625 -0.515625 C 7.976562 -1.203125 6.769531 -2.144531 5.78125 -3.34375 C 4.78125 -4.53125 4.019531 -5.925781 3.5 -7.53125 C 2.976562 -9.132812 2.71875 -10.84375 2.71875 -12.65625 L 2.71875 -20.765625 C 2.71875 -21.460938 2.851562 -22.113281 3.125 -22.71875 C 3.394531 -23.332031 3.765625 -23.863281 4.234375 -24.3125 C 4.691406 -24.769531 5.222656 -25.132812 5.828125 -25.40625 C 6.441406 -25.675781 7.097656 -25.8125 7.796875 -25.8125 C 8.492188 -25.8125 9.15625 -25.675781 9.78125 -25.40625 C 10.40625 -25.132812 10.953125 -24.769531 11.421875 -24.3125 C 11.898438 -23.863281 12.273438 -23.332031 12.546875 -22.71875 C 12.828125 -22.113281 12.96875 -21.460938 12.96875 -20.765625 L 12.96875 -12.65625 C 12.96875 -11.769531 13.238281 -11.03125 13.78125 -10.4375 C 14.039062 -10.15625 14.34375 -9.921875 14.6875 -9.734375 C 15.039062 -9.554688 15.425781 -9.46875 15.84375 -9.46875 C 16.257812 -9.46875 16.65625 -9.554688 17.03125 -9.734375 C 17.40625 -9.921875 17.734375 -10.15625 18.015625 -10.4375 C 18.609375 -11.0625 18.90625 -11.800781 18.90625 -12.65625 L 18.90625 -20.703125 C 18.90625 -21.421875 19.039062 -22.085938 19.3125 -22.703125 C 19.582031 -23.328125 19.941406 -23.875 20.390625 -24.34375 C 20.847656 -24.800781 21.382812 -25.160156 22 -25.421875 C 22.625 -25.679688 23.289062 -25.8125 24 -25.8125 C 24.738281 -25.8125 25.414062 -25.679688 26.03125 -25.421875 C 26.644531 -25.160156 27.191406 -24.800781 27.671875 -24.34375 C 28.117188 -23.875 28.472656 -23.328125 28.734375 -22.703125 C 28.992188 -22.085938 29.125 -21.421875 29.125 -20.703125 Z M 29.125 -20.703125 "/></g></g><g style="fill:#ffde59;fill-opacity:1;"><g transform="translate(226.53873, 57.987468)"><path style="stroke:none" d="M 24.625 -21.734375 C 25.15625 -21.171875 25.570312 -20.578125 25.875 -19.953125 C 26.175781 -19.335938 26.328125 -18.71875 26.328125 -18.09375 C 26.328125 -16.789062 25.910156 -15.703125 25.078125 -14.828125 C 24.660156 -14.410156 24.160156 -14.070312 23.578125 -13.8125 C 23.003906 -13.5625 22.363281 -13.4375 21.65625 -13.4375 C 21.226562 -13.4375 20.835938 -13.5 20.484375 -13.625 C 20.128906 -13.75 19.773438 -13.894531 19.421875 -14.0625 C 19.253906 -14.15625 19.085938 -14.25 18.921875 -14.34375 C 18.753906 -14.4375 18.582031 -14.535156 18.40625 -14.640625 C 18.226562 -14.734375 18.054688 -14.832031 17.890625 -14.9375 C 17.734375 -15.039062 17.554688 -15.132812 17.359375 -15.21875 C 16.785156 -15.457031 16.179688 -15.613281 15.546875 -15.6875 C 14.921875 -15.757812 14.332031 -15.695312 13.78125 -15.5 C 13.238281 -15.332031 12.785156 -15.015625 12.421875 -14.546875 C 12.054688 -14.085938 11.875 -13.457031 11.875 -12.65625 C 11.875 -11.875 12.035156 -11.242188 12.359375 -10.765625 C 12.691406 -10.296875 13.128906 -9.96875 13.671875 -9.78125 C 14.191406 -9.582031 14.78125 -9.519531 15.4375 -9.59375 C 16.09375 -9.664062 16.734375 -9.832031 17.359375 -10.09375 C 17.742188 -10.25 18.101562 -10.441406 18.4375 -10.671875 C 18.78125 -10.878906 19.109375 -11.070312 19.421875 -11.25 C 20.117188 -11.59375 20.890625 -11.785156 21.734375 -11.828125 C 22.585938 -11.867188 23.394531 -11.691406 24.15625 -11.296875 C 24.84375 -10.890625 25.375 -10.34375 25.75 -9.65625 C 26.132812 -8.96875 26.328125 -8.15625 26.328125 -7.21875 C 26.328125 -6.1875 26.050781 -5.207031 25.5 -4.28125 C 24.957031 -3.363281 24.1875 -2.546875 23.1875 -1.828125 C 22.175781 -1.128906 20.957031 -0.5625 19.53125 -0.125 C 18.101562 0.300781 16.507812 0.515625 14.75 0.515625 C 12.9375 0.515625 11.234375 0.171875 9.640625 -0.515625 C 8.054688 -1.203125 6.671875 -2.144531 5.484375 -3.34375 C 4.285156 -4.53125 3.34375 -5.925781 2.65625 -7.53125 C 1.96875 -9.132812 1.625 -10.84375 1.625 -12.65625 C 1.625 -14.445312 1.96875 -16.144531 2.65625 -17.75 C 3.34375 -19.351562 4.285156 -20.75 5.484375 -21.9375 C 6.671875 -23.125 8.054688 -24.066406 9.640625 -24.765625 C 11.234375 -25.460938 12.9375 -25.8125 14.75 -25.8125 C 15.757812 -25.8125 16.75 -25.707031 17.71875 -25.5 C 18.6875 -25.289062 19.597656 -25 20.453125 -24.625 C 21.316406 -24.257812 22.101562 -23.828125 22.8125 -23.328125 C 23.519531 -22.835938 24.125 -22.304688 24.625 -21.734375 Z M 24.625 -21.734375 "/></g></g><g style="fill:#ffde59;fill-opacity:1;"><g transform="translate(254.518955, 57.987468)"><path style="stroke:none" d="M 2.71875 -4.609375 L 2.71875 -29.03125 C 2.71875 -29.726562 2.847656 -30.390625 3.109375 -31.015625 C 3.367188 -31.640625 3.734375 -32.179688 4.203125 -32.640625 C 4.660156 -33.085938 5.203125 -33.445312 5.828125 -33.71875 C 6.453125 -33.988281 7.125 -34.125 7.84375 -34.125 C 8.539062 -34.125 9.203125 -33.988281 9.828125 -33.71875 C 10.453125 -33.445312 11.003906 -33.085938 11.484375 -32.640625 C 11.929688 -32.179688 12.289062 -31.640625 12.5625 -31.015625 C 12.832031 -30.390625 12.96875 -29.726562 12.96875 -29.03125 L 12.96875 -19.296875 L 20.421875 -24.734375 C 21.203125 -25.273438 22.046875 -25.609375 22.953125 -25.734375 C 23.359375 -25.785156 23.75 -25.773438 24.125 -25.703125 C 24.507812 -25.628906 24.90625 -25.515625 25.3125 -25.359375 C 25.90625 -25.117188 26.445312 -24.773438 26.9375 -24.328125 C 27.425781 -23.890625 27.804688 -23.363281 28.078125 -22.75 C 28.378906 -22.125 28.53125 -21.460938 28.53125 -20.765625 C 28.53125 -19.960938 28.34375 -19.210938 27.96875 -18.515625 C 27.59375 -17.816406 27.09375 -17.238281 26.46875 -16.78125 L 23.25 -14.4375 L 27.765625 -7.734375 C 28.234375 -7.210938 28.5625 -6.648438 28.75 -6.046875 C 28.9375 -5.453125 29.007812 -4.847656 28.96875 -4.234375 C 28.863281 -2.941406 28.367188 -1.851562 27.484375 -0.96875 C 27.046875 -0.53125 26.535156 -0.179688 25.953125 0.078125 C 25.367188 0.335938 24.738281 0.46875 24.0625 0.46875 C 23.320312 0.46875 22.601562 0.296875 21.90625 -0.046875 C 21.207031 -0.398438 20.597656 -0.90625 20.078125 -1.5625 L 15.375 -8.734375 L 14.203125 -7.875 C 14.054688 -7.769531 13.925781 -7.675781 13.8125 -7.59375 C 13.707031 -7.519531 13.609375 -7.457031 13.515625 -7.40625 C 13.429688 -7.351562 13.359375 -7.304688 13.296875 -7.265625 C 13.234375 -7.234375 13.1875 -7.207031 13.15625 -7.1875 C 13.113281 -7.175781 13.078125 -7.15625 13.046875 -7.125 C 13.023438 -7.101562 13 -7.082031 12.96875 -7.0625 L 12.96875 -4.609375 C 12.96875 -3.890625 12.832031 -3.210938 12.5625 -2.578125 C 12.289062 -1.953125 11.929688 -1.414062 11.484375 -0.96875 C 11.003906 -0.5 10.453125 -0.132812 9.828125 0.125 C 9.203125 0.382812 8.539062 0.515625 7.84375 0.515625 C 7.125 0.515625 6.453125 0.382812 5.828125 0.125 C 5.203125 -0.132812 4.660156 -0.5 4.203125 -0.96875 C 3.734375 -1.414062 3.367188 -1.953125 3.109375 -2.578125 C 2.847656 -3.210938 2.71875 -3.890625 2.71875 -4.609375 Z M 2.71875 -4.609375 "/></g></g><g style="fill:#ffde59;fill-opacity:1;"><g transform="translate(284.565, 57.987468)"><path style="stroke:none" d="M 13.390625 0.515625 C 12.609375 0.515625 11.773438 0.429688 10.890625 0.265625 C 10.003906 0.109375 9.128906 -0.109375 8.265625 -0.390625 C 7.390625 -0.691406 6.550781 -1.054688 5.75 -1.484375 C 4.945312 -1.921875 4.242188 -2.410156 3.640625 -2.953125 C 3.023438 -3.515625 2.535156 -4.125 2.171875 -4.78125 C 1.804688 -5.445312 1.625 -6.160156 1.625 -6.921875 C 1.625 -7.503906 1.734375 -8.054688 1.953125 -8.578125 C 2.171875 -9.097656 2.46875 -9.550781 2.84375 -9.9375 C 3.21875 -10.332031 3.65625 -10.640625 4.15625 -10.859375 C 4.664062 -11.078125 5.21875 -11.1875 5.8125 -11.1875 C 6.445312 -11.1875 7.070312 -11.066406 7.6875 -10.828125 C 8.3125 -10.597656 8.894531 -10.316406 9.4375 -9.984375 C 9.71875 -9.816406 9.988281 -9.648438 10.25 -9.484375 C 10.507812 -9.316406 10.769531 -9.144531 11.03125 -8.96875 C 11.550781 -8.582031 12.039062 -8.273438 12.5 -8.046875 C 12.675781 -7.960938 12.910156 -7.863281 13.203125 -7.75 C 13.503906 -7.632812 13.789062 -7.5625 14.0625 -7.53125 C 14.363281 -7.476562 14.613281 -7.5 14.8125 -7.59375 C 15.007812 -7.6875 15.109375 -7.898438 15.109375 -8.234375 C 15.109375 -8.441406 14.910156 -8.671875 14.515625 -8.921875 C 14.109375 -9.128906 13.59375 -9.359375 12.96875 -9.609375 C 12.34375 -9.859375 11.617188 -10.125 10.796875 -10.40625 C 9.992188 -10.695312 9.1875 -11.03125 8.375 -11.40625 C 7.570312 -11.78125 6.800781 -12.210938 6.0625 -12.703125 C 5.332031 -13.210938 4.722656 -13.789062 4.234375 -14.4375 C 3.742188 -15.082031 3.40625 -15.820312 3.21875 -16.65625 C 3.039062 -17.488281 3.070312 -18.359375 3.3125 -19.265625 C 3.5625 -20.171875 3.929688 -21.019531 4.421875 -21.8125 C 4.890625 -22.570312 5.53125 -23.269531 6.34375 -23.90625 C 7.164062 -24.539062 8.160156 -25.0625 9.328125 -25.46875 C 10.535156 -25.863281 11.925781 -26.0625 13.5 -26.0625 C 14.957031 -26.0625 16.351562 -25.925781 17.6875 -25.65625 C 19.019531 -25.394531 20.191406 -24.992188 21.203125 -24.453125 C 22.210938 -23.910156 23.019531 -23.242188 23.625 -22.453125 C 24.226562 -21.671875 24.53125 -20.773438 24.53125 -19.765625 C 24.53125 -19.015625 24.382812 -18.378906 24.09375 -17.859375 C 23.8125 -17.335938 23.453125 -16.898438 23.015625 -16.546875 C 22.578125 -16.222656 22.097656 -15.976562 21.578125 -15.8125 C 21.066406 -15.644531 20.585938 -15.5625 20.140625 -15.5625 C 19.710938 -15.5625 19.296875 -15.632812 18.890625 -15.78125 C 18.484375 -15.925781 18.097656 -16.101562 17.734375 -16.3125 C 17.347656 -16.519531 16.992188 -16.742188 16.671875 -16.984375 C 16.347656 -17.222656 16.054688 -17.4375 15.796875 -17.625 C 15.253906 -17.988281 14.753906 -18.144531 14.296875 -18.09375 C 14.078125 -18.070312 13.890625 -17.992188 13.734375 -17.859375 C 13.578125 -17.722656 13.5 -17.539062 13.5 -17.3125 C 13.5 -17.21875 13.601562 -17.101562 13.8125 -16.96875 C 14.226562 -16.707031 14.851562 -16.4375 15.6875 -16.15625 C 15.894531 -16.09375 16.101562 -16.019531 16.3125 -15.9375 C 16.519531 -15.851562 16.738281 -15.769531 16.96875 -15.6875 L 18.515625 -15.140625 C 19.109375 -14.929688 19.71875 -14.675781 20.34375 -14.375 C 20.96875 -14.082031 21.578125 -13.726562 22.171875 -13.3125 C 22.785156 -12.875 23.332031 -12.363281 23.8125 -11.78125 C 24.289062 -11.195312 24.671875 -10.519531 24.953125 -9.75 C 25.222656 -8.988281 25.359375 -8.09375 25.359375 -7.0625 C 25.359375 -5.71875 25.019531 -4.566406 24.34375 -3.609375 C 23.664062 -2.648438 22.769531 -1.863281 21.65625 -1.25 C 20.539062 -0.644531 19.257812 -0.203125 17.8125 0.078125 C 16.375 0.367188 14.898438 0.515625 13.390625 0.515625 Z M 13.390625 0.515625 "/></g></g></g></svg>